<svg version="1.1" id="Layer_1" xmlns="http://www.w3.org/2000/svg" x="0" y="0" viewBox="58.604 46.083 237.306 237.306" width="237.306" height="237.306" xml:space="preserve"><defs><radialGradient cx="204.024" cy="172.989" r="11.408" id="gradient-1" gradientTransform="translate(-33.333 -64.368)"><stop offset="0" style="stop-color:#815e5e"/><stop offset="1" style="stop-color:#463333"/></radialGradient><radialGradient cx="263.219" cy="220.114" r="11.408" id="gradient-0" gradientTransform="translate(-33.333 -64.368)"><stop offset="0" style="stop-color:#815e5e"/><stop offset="1" style="stop-color:#463333"/></radialGradient><radialGradient cx="216.667" cy="278.16" r="11.408" id="gradient-2" gradientTransform="translate(-33.333 -64.368)"><stop offset="0" style="stop-color:#815e5e"/><stop offset="1" style="stop-color:#463333"/></radialGradient><radialGradient cx="154.598" cy="240.23" r="11.408" id="gradient-3" gradientTransform="translate(-25.862 -67.241)"><stop offset="0" style="stop-color:#815e5e"/><stop offset="1" style="stop-color:#463333"/></radialGradient></defs><path d="m275.842 231.025-10.511 13.437L219.86 228.9a76.882 76.882 0 0 1-9.63 5.441l-10.136 46.979-16.935 2.069-21.148-43.157a76.984 76.984 0 0 1-10.656-2.963l-40.387 26.052-13.437-10.511 15.562-45.471a77.024 77.024 0 0 1-5.441-9.63l-46.979-10.136-2.069-16.935 43.157-21.148a76.997 76.997 0 0 1 2.963-10.657L78.672 98.446l10.511-13.437 43.326 14.829a67.476 67.476 0 0 1 12.431-7.75l9.48-43.936 16.935-2.069 20.437 41.706a66.838 66.838 0 0 1 11.545 4.299l40.21-25.937 13.437 10.511-15.563 45.471a76.889 76.889 0 0 1 5.442 9.63l46.978 10.136 2.069 16.935-43.156 21.148a77.123 77.123 0 0 1-2.963 10.656Z" style="fill:#d8d8d8"/><circle style="fill:url(#gradient-1)" cx="170.691" cy="108.621" r="11.408"/><circle style="fill:url(#gradient-0);paint-order:fill" cx="229.886" cy="155.746" r="11.408"/><circle style="fill:url(#gradient-2)" cx="183.334" cy="213.792" r="11.408"/><circle style="fill:url(#gradient-3)" cx="128.736" cy="172.988" r="11.408"/></svg>