<?xml version="1.0" encoding="utf-8"?>
<!DOCTYPE svg PUBLIC "-//W3C//DTD SVG 1.1//EN" "http://www.w3.org/Graphics/SVG/1.1/DTD/svg11.dtd">
<svg version="1.1" id="Layer_1" xmlns="http://www.w3.org/2000/svg" x="0px" y="0px"
     viewBox="58.604 46.083 237.306 237.306" width="237.306" height="237.306" xml:space="preserve">
  <defs>
    <radialGradient cx="204.024" cy="172.989" r="11.408" id="gradient-1" gradientTransform="matrix(1, 0, 0, 1, -33.333332, -64.367813)">
      <stop offset="0" style="stop-color: rgba(129, 94, 94, 1)" />
      <stop offset="1" style="stop-color: rgba(70, 51, 51, 1)" />
    </radialGradient>
    <radialGradient cx="263.219" cy="220.114" r="11.408" id="gradient-0" gradientTransform="matrix(1, 0, 0, 1, -33.333332, -64.367813)">
      <stop offset="0" style="stop-color: rgba(129, 94, 94, 1)" />
      <stop offset="1" style="stop-color: rgba(70, 51, 51, 1)" />
    </radialGradient>
    <radialGradient cx="216.667" cy="278.16" r="11.408" id="gradient-2" gradientTransform="matrix(1, 0, 0, 1, -33.333332, -64.367813)">
      <stop offset="0" style="stop-color: rgba(129, 94, 94, 1)" />
      <stop offset="1" style="stop-color: rgba(70, 51, 51, 1)" />
    </radialGradient>
    <radialGradient cx="154.598" cy="240.23" r="11.408" id="gradient-3" gradientTransform="matrix(1, 0, 0, 1, -25.862068, -67.241376)">
      <stop offset="0" style="stop-color: rgba(129, 94, 94, 1)" />
      <stop offset="1" style="stop-color: rgba(70, 51, 51, 1)" />
    </radialGradient>
  </defs>
    <path d="M 275.842 231.025 L 265.331 244.462 L 219.86 228.9 C 216.785 230.942 213.567 232.761 210.23 234.341 L 200.094 281.32 L 183.159 283.389 L 162.011 240.232 C 158.393 239.501 154.831 238.511 151.355 237.269 L 110.968 263.321 L 97.531 252.81 L 113.093 207.339 C 111.051 204.263 109.232 201.045 107.652 197.709 L 60.673 187.573 L 58.604 170.638 L 101.761 149.49 C 102.492 145.871 103.482 142.31 104.724 138.833 L 78.672 98.446 L 89.183 85.009 L 132.509 99.838 C 136.34 96.827 140.506 94.222 144.94 92.088 L 154.42 48.152 L 171.355 46.083 L 191.792 87.789 C 195.801 88.873 199.662 90.319 203.337 92.088 L 243.547 66.151 L 256.984 76.662 L 241.421 122.133 C 243.464 125.208 245.282 128.426 246.863 131.763 L 293.841 141.899 L 295.91 158.834 L 252.754 179.982 C 252.023 183.6 251.032 187.162 249.791 190.638 Z" style="fill: rgb(216, 216, 216);" />
    <circle style="fill: url(#gradient-1);" cx="170.691" cy="108.621" r="11.408" />
    <circle style="fill: url(#gradient-0); paint-order: fill;" cx="229.886" cy="155.746" r="11.408" />
    <circle style="fill: url(#gradient-2);" cx="183.334" cy="213.792" r="11.408" />
    <circle style="fill: url(#gradient-3);" cx="128.736" cy="172.988" r="11.408" />
</svg>
